<svg width="24" height="24" viewBox="0 0 24 24" fill="none" xmlns="http://www.w3.org/2000/svg">
<path fill-rule="evenodd" clip-rule="evenodd" d="M15.7 2.56H17.01C17.1039 2.56 17.18 2.63611 17.18 2.73V18.66C17.18 18.7539 17.1039 18.83 17.01 18.83H15.7C15.6061 18.83 15.53 18.7539 15.53 18.66V2.73C15.53 2.63611 15.6061 2.56 15.7 2.56ZM5.11 19.82H18.9C18.9939 19.82 19.07 19.8961 19.07 19.99V21.3C19.07 21.3939 18.9939 21.47 18.9 21.47H5.11C5.01611 21.47 4.94 21.3939 4.94 21.3V19.99C4.94 19.8961 5.01611 19.82 5.11 19.82ZM12.64 9.58H11.33C11.2361 9.58 11.16 9.65611 11.16 9.75V18.66C11.16 18.7539 11.2361 18.83 11.33 18.83H12.64C12.7339 18.83 12.81 18.7539 12.81 18.66V9.75C12.81 9.65611 12.7339 9.58 12.64 9.58ZM6.98 5.00999H8.29C8.38389 5.00999 8.46 5.08611 8.46 5.17999V18.65C8.46 18.7439 8.38389 18.82 8.29 18.82H6.98C6.88611 18.82 6.81 18.7439 6.81 18.65V5.17999C6.81 5.08611 6.88611 5.00999 6.98 5.00999Z" fill="#565656"/>
</svg>
