<svg width="24" height="24" viewBox="0 0 24 24" fill="none" xmlns="http://www.w3.org/2000/svg">
<path d="M21.5084 3.48787L20.5146 2.49412C20.4771 2.45662 20.4303 2.44022 20.3811 2.44022C20.3318 2.44022 20.285 2.45897 20.2475 2.49412L18.4639 4.27772C17.6885 3.75237 16.7731 3.47228 15.8365 3.47381C14.6365 3.47381 13.4365 3.93084 12.5201 4.84725L10.1318 7.23553C10.0969 7.27077 10.0774 7.31836 10.0774 7.36795C10.0774 7.41754 10.0969 7.46513 10.1318 7.50037L16.4998 13.8683C16.5373 13.9058 16.5842 13.9222 16.6334 13.9222C16.6803 13.9222 16.7295 13.9035 16.767 13.8683L19.1553 11.4801C20.7701 9.86287 20.96 7.36209 19.7248 5.53865L21.5084 3.75506C21.5811 3.68006 21.5811 3.56053 21.5084 3.48787ZM18.0256 10.3527L16.6334 11.7449L12.2553 7.36678L13.6475 5.97459C14.2311 5.391 15.0092 5.06756 15.8365 5.06756C16.6639 5.06756 17.4396 5.38865 18.0256 5.97459C18.6092 6.55818 18.9326 7.33631 18.9326 8.16365C18.9326 8.991 18.6092 9.76678 18.0256 10.3527ZM13.5678 12.8137C13.5325 12.7788 13.4849 12.7592 13.4354 12.7592C13.3858 12.7592 13.3382 12.7788 13.3029 12.8137L11.742 14.3746L9.62559 12.2582L11.1889 10.6949C11.2615 10.6222 11.2615 10.5027 11.1889 10.4301L10.3357 9.57693C10.3005 9.54204 10.2529 9.52247 10.2033 9.52247C10.1537 9.52247 10.1061 9.54204 10.0709 9.57693L8.50762 11.1402L7.49981 10.1324C7.48231 10.1149 7.46146 10.1011 7.4385 10.0918C7.41555 10.0826 7.39096 10.078 7.36621 10.0785C7.31934 10.0785 7.27012 10.0972 7.23262 10.1324L4.84668 12.5207C3.23184 14.1379 3.04199 16.6387 4.27715 18.4621L2.49356 20.2457C2.45866 20.2809 2.43909 20.3285 2.43909 20.3781C2.43909 20.4277 2.45866 20.4753 2.49356 20.5105L3.48731 21.5043C3.52481 21.5418 3.57168 21.5582 3.6209 21.5582C3.67012 21.5582 3.71699 21.5394 3.75449 21.5043L5.53809 19.7207C6.32793 20.2574 7.24668 20.5246 8.16543 20.5246C9.36543 20.5246 10.5654 20.0676 11.4818 19.1512L13.8701 16.7629C13.9428 16.6902 13.9428 16.5707 13.8701 16.498L12.8623 15.4902L14.4256 13.9269C14.4982 13.8543 14.4982 13.7347 14.4256 13.6621L13.5678 12.8137ZM10.3521 18.0262C10.0653 18.3145 9.72414 18.5431 9.3484 18.6988C8.97267 18.8545 8.5698 18.9341 8.16309 18.9332C7.33574 18.9332 6.55996 18.6121 5.97402 18.0262C5.6857 17.7393 5.45709 17.3981 5.3014 17.0224C5.14572 16.6467 5.06605 16.2438 5.06699 15.8371C5.06699 15.0097 5.38809 14.234 5.97402 13.648L7.36621 12.2558L11.7443 16.634L10.3521 18.0262Z" fill="#565656"/>
</svg>
