<svg width="24" height="24" viewBox="0 0 24 24" fill="none" xmlns="http://www.w3.org/2000/svg">
<path d="M7.63002 18.92C3.82002 18.92 0.710022 15.82 0.710022 12C0.710022 8.17999 3.81002 5.07999 7.63002 5.07999C11.45 5.07999 14.55 8.17999 14.55 12C14.55 15.82 11.45 18.92 7.63002 18.92ZM7.63002 6.72999C4.73002 6.72999 2.37002 9.08999 2.37002 11.99C2.37002 14.89 4.73002 17.26 7.63002 17.26C10.53 17.26 12.9 14.9 12.9 11.99C12.9 9.07999 10.54 6.72999 7.63002 6.72999ZM6.27002 9.09999C6.19002 9.03999 6.07002 9.09999 6.07002 9.19999V14.81C6.07002 14.91 6.18002 14.97 6.27002 14.91L10.01 12.11C10.08 12.06 10.08 11.96 10.01 11.91L6.27002 9.10999V9.09999ZM21 12C21 11.72 20.78 11.5 20.5 11.5H16.16C15.88 11.5 15.66 11.72 15.66 12C15.66 12.28 15.88 12.5 16.16 12.5H20.5C20.78 12.5 21 12.28 21 12ZM23.29 8.92999C23.29 8.64999 23.07 8.42999 22.79 8.42999H16.16C15.88 8.42999 15.66 8.64999 15.66 8.92999C15.66 9.20999 15.88 9.42999 16.16 9.42999H22.79C23.07 9.42999 23.29 9.20999 23.29 8.92999ZM22.22 15.07C22.22 14.79 22 14.57 21.72 14.57H16.16C15.88 14.57 15.66 14.79 15.66 15.07C15.66 15.35 15.88 15.57 16.16 15.57H21.72C22 15.57 22.22 15.35 22.22 15.07Z" fill="#565656"/>
</svg>
