<svg width="24" height="24" viewBox="0 0 24 24" fill="none" xmlns="http://www.w3.org/2000/svg">
<path d="M22.54 7.54H7.88998V2.59C7.88998 2.49 7.80998 2.42 7.71998 2.42H4.67998C2.80998 2.42 1.28998 3.94 1.28998 5.81V18.21C1.28998 20.08 2.80998 21.6 4.67998 21.6H22.54C22.64 21.6 22.71 21.52 22.71 21.43V7.71C22.71 7.61 22.63 7.54 22.54 7.54ZM2.93998 5.8C2.93998 4.84 3.71998 4.06 4.67998 4.06H6.24998V14.81H4.67998C4.46998 14.81 4.26998 14.84 4.06998 14.87C4.01998 14.87 3.96998 14.89 3.91998 14.9C3.73998 14.94 3.56998 14.99 3.40998 15.06C3.38998 15.06 3.36998 15.07 3.35998 15.08C3.21998 15.14 3.07998 15.21 2.94998 15.29V5.8H2.93998ZM21.06 19.94H4.77998C3.90998 19.94 3.10998 19.35 2.96998 18.49C2.78998 17.4 3.62998 16.46 4.68998 16.46H7.72998C7.82998 16.46 7.89998 16.38 7.89998 16.29V9.19H21.07V19.94H21.06ZM8.92998 13.15V11.74C8.92998 11.64 9.00998 11.57 9.09998 11.57H16.12C16.22 11.57 16.29 11.65 16.29 11.74V13.15C16.29 13.25 16.21 13.32 16.12 13.32H9.09998C8.99998 13.32 8.92998 13.24 8.92998 13.15ZM17.57 13.15V11.74C17.57 11.64 17.65 11.57 17.74 11.57H19.78C19.88 11.57 19.95 11.65 19.95 11.74V13.15C19.95 13.25 19.87 13.32 19.78 13.32H17.74C17.64 13.32 17.57 13.24 17.57 13.15ZM8.92998 17.39V15.98C8.92998 15.88 9.00998 15.81 9.09998 15.81H13.65C13.75 15.81 13.82 15.89 13.82 15.98V17.39C13.82 17.49 13.74 17.56 13.65 17.56H9.09998C8.99998 17.56 8.92998 17.48 8.92998 17.39ZM19.96 15.97V17.38C19.96 17.48 19.88 17.55 19.79 17.55H15.36C15.26 17.55 15.19 17.47 15.19 17.38V15.97C15.19 15.87 15.27 15.8 15.36 15.8H19.79C19.89 15.8 19.96 15.88 19.96 15.97Z" fill="#565656"/>
</svg>
